<svg id="图层_1" data-name="图层 1" xmlns="http://www.w3.org/2000/svg" viewBox="0 0 1024 1024"><defs><style>.cls-1{fill:#040000;fill-rule:evenodd;}</style></defs><title>添加（人）</title><path class="cls-1" d="M816.89,807.55h-105l-1.62-101.72H609.61V601.68H711.94V499.15H815.28V601.68H917.81V705H815.28ZM607.1,549.2H556.93V757.49H660.27V860.83H867v-99c60,58.77,51.67,149.66,51.67,149.66H105.13s-8.79-153.92,116-191.84c95.62-29.06,181.47-71.55,181.47-95.38,0,0-1.13-15.88-1.13-73.75,0,0-60.44-90.77-60.44-226.91s56.86-211,142-211h51c85.1,0,135.58,64.67,135.58,200.82s-62.49,234.85-62.49,234.85C607.09,548.62,607.1,548.81,607.1,549.2Z"/></svg>