<svg id="图层_1" data-name="图层 1" xmlns="http://www.w3.org/2000/svg" viewBox="0 0 1024 1024"><defs><style>.cls-1{fill:#040000;fill-rule:evenodd;}</style></defs><title>设置年级主任</title><path class="cls-1" d="M454.3,757.12h0V548.52h50.24c0-.39,0-.6,0-1,0,0,62.58-98.86,62.58-235.21S517,112.68,431.34,111.19c-8.13-.14-13.91,0-18.68,0H380.2C295,111.19,238,186.19,238,322.54S298.56,549.8,298.56,549.8c0,57.95,1.14,73.86,1.14,73.86,0,23.86-87.14,62.83-181.74,95.53C-7.39,762.53,0,911.32,0,911.32H557.8v-50.7h0C557.8,826.66,524.39,757.12,454.3,757.12Z"/><path class="cls-1" d="M1024,719.13V640.52H940.18a154.29,154.29,0,0,0-16.72-41L980,543l-55.59-55.59-56.26,56.26a154.74,154.74,0,0,0-38.89-16.36v-81.2H750.64v80.56a154.57,154.57,0,0,0-41,17l-56.25-56.26L597.85,543l56.53,56.53a154.63,154.63,0,0,0-16.71,41H557.3v78.61h81.77a154.73,154.73,0,0,0,16,37.67l-60.67,60.67L650,873.05l61-61a154.18,154.18,0,0,0,39.73,16.34v84.44h78.62V827.8a154.17,154.17,0,0,0,37.67-15.7l61,61,55.59-55.58L922.8,756.8a154.92,154.92,0,0,0,16-37.67ZM786.47,755.44a76.64,76.64,0,1,1,76.64-76.64A76.65,76.65,0,0,1,786.47,755.44Z"/></svg>