<svg id="图层_1" data-name="图层 1" xmlns="http://www.w3.org/2000/svg" viewBox="0 0 1024 1024"><defs><style>.cls-1{fill:#040000;fill-rule:evenodd;}</style></defs><title>批量授权（开通）</title><path class="cls-1" d="M722.09,784.15,599.41,643.65l61.08-74.73L721,651.44l157.63-209.1L950.3,514ZM567.48,548.5H518.27s0,199.62,0,204.31c68.63,0,101.94,68.38,101.94,101.64,7.32-.22,202.15-.27,202.15-.27V757C881.17,814.67,873,903.82,873,903.82H73.71S69.64,754.44,188.86,715.65c93.22-30.33,172.51-63.35,178-93.56,3.66-24.24,6.64-57-1.11-72.34,0,0-59.28-89-59.28-222.58s55.77-207,139.23-207h50.08c83.46,0,133,63.44,133,197s-61.29,230.37-61.29,230.37C567.47,547.91,567.48,548.11,567.48,548.5Z"/></svg>