<svg id="图层_1" data-name="图层 1" xmlns="http://www.w3.org/2000/svg" viewBox="0 0 1024 1024"><defs><style>.cls-1,.cls-2{fill:#231815;}.cls-2{fill-rule:evenodd;}</style></defs><title>日期</title><rect class="cls-1" x="285.71" y="479.67" width="64.65" height="64.66"/><rect class="cls-1" x="415.02" y="479.67" width="64.65" height="64.66"/><rect class="cls-1" x="544.33" y="479.67" width="64.64" height="64.66"/><rect class="cls-1" x="673.64" y="479.67" width="64.65" height="64.66"/><rect class="cls-1" x="285.71" y="608.98" width="64.65" height="64.65"/><rect class="cls-1" x="415.02" y="608.98" width="64.65" height="64.65"/><rect class="cls-1" x="544.33" y="608.98" width="64.64" height="64.65"/><rect class="cls-1" x="287.1" y="156.4" width="64.65" height="129.32"/><rect class="cls-1" x="673.64" y="156.4" width="64.65" height="129.32"/><path class="cls-2" d="M802.95,221.05H769.79v93.3H646v-93.3h-266v94.69H256.12V221.05H221.05a64.66,64.66,0,0,0-64.65,64.66V802.95a64.65,64.65,0,0,0,64.65,64.65H802.95a64.65,64.65,0,0,0,64.65-64.65V285.72A64.66,64.66,0,0,0,802.95,221.05Zm0,517.25H221.05V415H802.95Z"/></svg>