<svg id="图层_1" data-name="图层 1" xmlns="http://www.w3.org/2000/svg" viewBox="0 0 1024 1024"><defs><style>.cls-1,.cls-2{fill:#040000;}.cls-1{fill-rule:evenodd;}</style></defs><title>批量取消禁言</title><path class="cls-1" d="M531.74,664.87H465.83L353.1,780.1l-104-115.23H221.29A44.35,44.35,0,0,1,177,620.52V354.43a44.35,44.35,0,0,1,44.34-44.35H753.48a44.35,44.35,0,0,1,44.35,44.35v93.16c33,6.7,62.79,21.31,88.69,40.88V310.08a88.69,88.69,0,0,0-88.69-88.7H177a88.69,88.69,0,0,0-88.7,88.7V664.87a88.69,88.69,0,0,0,88.7,88.7h44.34l131.8,133,134.29-133h63.07A220.53,220.53,0,0,1,531.74,664.87Z"/><path class="cls-1" d="M753.48,443.13c-122.46,0-221.74,99.28-221.74,221.74S631,886.61,753.48,886.61s221.74-99.28,221.74-221.74S875.94,443.13,753.48,443.13Zm0,402.68A180.94,180.94,0,1,1,934.42,664.87,180.95,180.95,0,0,1,753.48,845.81Z"/><path class="cls-1" d="M858,621a24.64,24.64,0,0,0-34.84,0l-87.11,87.1-52.26-52.26a24.64,24.64,0,1,0-34.84,34.84l69.68,69.69a24.65,24.65,0,0,0,34.85,0L858,655.84A24.64,24.64,0,0,0,858,621Z"/><rect class="cls-2" x="249.08" y="404.94" width="375.53" height="46.94" rx="0.53" ry="0.53"/><rect class="cls-2" x="249.08" y="510.55" width="269.91" height="46.94" rx="0.53" ry="0.53"/></svg>