<svg id="图层_1" data-name="图层 1" xmlns="http://www.w3.org/2000/svg" viewBox="0 0 1024 1024"><defs><style>.cls-1{fill:#040000;fill-rule:evenodd;}</style></defs><title>批量导出</title><path class="cls-1" d="M867.7,508.4V308.24a93.87,93.87,0,0,0-93.88-93.88H584.61L445.26,120.48H210.57a93.88,93.88,0,0,0-93.88,93.88V683.74a93.88,93.88,0,0,0,93.88,93.88H426.73c-.78-1.53-1.17-3.27-1.92-4.82,44.41,78,128.15,130.73,224.34,130.73,142.57,0,258.17-115.58,258.17-258.16A256.58,256.58,0,0,0,867.7,508.4ZM257.51,683.74a46.94,46.94,0,0,1-46.94-46.94V261.29a46.93,46.93,0,0,1,46.94-46.94H445.26l142.28,93.88H726.88a46.93,46.93,0,0,1,46.94,46.94v64.17A256.88,256.88,0,0,0,649.15,387.2C506.57,387.2,391,502.78,391,645.36a258.73,258.73,0,0,0,3.16,38.38ZM649.15,856.58c-116.66,0-211.22-94.57-211.22-211.22s94.57-211.22,211.22-211.22,211.22,94.57,211.22,211.22S765.8,856.58,649.15,856.58Z"/><polygon class="cls-1" points="682.34 777.29 815.1 644.53 781.91 611.34 672.62 720.63 672.62 480.24 625.68 480.24 625.68 720.63 516.39 611.34 483.2 644.53 649.15 810.48 682.34 777.29"/></svg>