<svg id="图层_1" data-name="图层 1" xmlns="http://www.w3.org/2000/svg" viewBox="0 0 1024 1024"><defs><style>.cls-1{fill:#0c0c0c;fill-rule:evenodd;}</style></defs><title>单个导出</title><polygon class="cls-1" points="281.04 246.4 523.38 246.4 523.38 391.8 717.26 391.8 717.26 488.74 814.2 488.74 814.2 340.31 617.29 149.45 184.1 149.45 184.1 873.47 426.44 873.47 426.44 776.53 281.04 776.53 281.04 246.4"/><path class="cls-1" d="M489,725.87l129.8,128.5s23.57,22.17,46.93,22.17c28.33,0,50-20.63,50-20.63l131.37-130a49.76,49.76,0,0,0,0-70.89,51,51,0,0,0-71.62,0l-59.75,59.15V543.77H618.76V712.58L560.57,655A51,51,0,0,0,489,655,49.75,49.75,0,0,0,489,725.87Z"/></svg>