<svg id="图层_1" data-name="图层 1" xmlns="http://www.w3.org/2000/svg" viewBox="0 0 1024 1024"><defs><style>.cls-1{fill:#040000;fill-rule:evenodd;}</style></defs><title>禁止</title><path class="cls-1" d="M512,134.26c-208.62,0-377.74,169.12-377.74,377.74S303.38,889.74,512,889.74,889.74,720.62,889.74,512,720.62,134.26,512,134.26ZM228.7,512c0-156.47,126.84-283.3,283.3-283.3a281.88,281.88,0,0,1,175.84,61.42L290.12,687.83A281.86,281.86,0,0,1,228.7,512ZM512,795.31a281.55,281.55,0,0,1-146-40.87L754.44,366A281.52,281.52,0,0,1,795.3,512C795.3,668.47,668.47,795.31,512,795.31Z"/></svg>