<svg id="图层_1" data-name="图层 1" xmlns="http://www.w3.org/2000/svg" viewBox="0 0 1024 1024"><defs><style>.cls-1{fill:#040000;fill-rule:evenodd;}</style></defs><title>批量导入</title><path class="cls-1" d="M859.58,508.48V312.89a91.73,91.73,0,0,0-91.73-91.74H582.95L446.78,129.42H217.45a91.73,91.73,0,0,0-91.74,91.73V679.82a91.73,91.73,0,0,0,91.74,91.73H428.67c-.77-1.5-1.14-3.2-1.88-4.71C470.19,843.07,552,894.58,646,894.58c139.32,0,252.27-112.94,252.27-252.27A250.72,250.72,0,0,0,859.58,508.48ZM263.32,679.82A45.86,45.86,0,0,1,217.45,634V267a45.86,45.86,0,0,1,45.87-45.87H446.78l139,91.74H722a45.86,45.86,0,0,1,45.87,45.86v62.71A251,251,0,0,0,646,390C506.69,390,393.75,503,393.75,642.32a252.83,252.83,0,0,0,3.09,37.5ZM646,848.72c-114,0-206.4-92.41-206.4-206.4S532,435.92,646,435.92s206.4,92.41,206.4,206.4S760,848.72,646,848.72Z"/><polygon class="cls-1" points="613.59 513.4 483.86 643.13 516.29 675.56 623.09 568.76 623.09 803.66 668.95 803.66 668.95 568.76 775.75 675.56 808.18 643.13 646.02 480.97 613.59 513.4"/></svg>