<svg id="图层_1" data-name="图层 1" xmlns="http://www.w3.org/2000/svg" viewBox="0 0 1024 1024"><defs><style>.cls-1{fill:#040000;fill-rule:evenodd;}</style></defs><title>icon</title><path class="cls-1" d="M900.89,579s-40.94-89.34-122.8-31.53c0,0-46.05-68.32-122.81,0l-40.94,47.39s141.88-16.89,149,83.68c0,0,4,80.06-86.41,80.06-197.84,0-293.37-.39-328.61-53.47,0,0,24,12.54,102.34,12.54H672.28s27.93-5.61,37.21-27.83c4.68-11.22,2.73-38.49-23.52-47.77H532.47c-25.58,0-57.66-4.53-92.1-31.53l-92.1-63.06s-112.1-68.86-184.21-31.53L.3,635.78,123.11,840.46l102.33-40.76L492.07,951.82s63.55,33.76,132.51-26l399.12-315.3S998.11,526.44,900.89,579Z"/><path class="cls-1" d="M552.93,513c124.35,0,225.15-100.8,225.15-225.15S677.28,62.68,552.93,62.68,327.79,163.49,327.79,287.83,428.59,513,552.93,513ZM409.66,390.17H528.35V349.24H409.66V308.3H531.13L409.66,185.49l37.06-36.79L554.49,256.47,659.66,148.06l36.56,37.43L574.8,308.3H696.21v40.94H578.08v40.94H696.21V431.1H578.08V472H528.35V431.1H409.66Z"/></svg>