<svg id="图层_1" data-name="图层 1" xmlns="http://www.w3.org/2000/svg" viewBox="0 0 1024 1024"><defs><style>.cls-1{fill:#040000;fill-rule:evenodd;}</style></defs><title>批量关闭</title><path class="cls-1" d="M818,864H609.52c0-34.21-33.67-104.27-104.27-104.27h0V549.54h50.61c0-.4,0-.6,0-1,0,0,63-99.59,63-237S568,109,482.12,109H430.6c-85.85,0-143.22,75.56-143.22,212.92s61,229,61,229c0,58.38,1.15,74.41,1.15,74.41,0,24-34.19,44.53-183.09,96.24C42.09,766.85,49.41,915,49.41,915H870.19s1.26-34.87,0-51.08Z"/><polygon class="cls-1" points="974.67 519.76 901.6 446.68 791.99 556.3 682.37 446.68 609.3 519.76 718.92 629.37 609.3 738.98 682.37 812.05 791.99 702.44 901.6 812.05 974.67 738.98 865.06 629.37 974.67 519.76"/></svg>