<svg id="图层_1" data-name="图层 1" xmlns="http://www.w3.org/2000/svg" viewBox="0 0 1024 1024"><defs><style>.cls-1{fill:#040000;fill-rule:evenodd;}</style></defs><title>启动</title><path class="cls-1" d="M519.73,559.32c20.27,0,45.43-10.8,45.43-49.79V190.19c0-39.41-26.61-51.44-46.88-51.44-46.45,0-46.89,48.24-46.89,51.44V509.53C471.38,549.33,499.45,559.32,519.73,559.32Z"/><path class="cls-1" d="M752.1,297.61c-26.41-22.17-53.2-20.09-70.08,1-16.36,20.44-3.63,47.46-1,52.56a254.59,254.59,0,0,1,86.17,191.2c0,140.95-114.26,255.21-255.21,255.21S256.79,683.32,256.79,542.38a254.57,254.57,0,0,1,85.48-190.58h0q4.24-3.78,8.64-7.36c16.49-17.39,17.91-43.26.84-61.59-22.19-23.81-52.54-7.25-58.31-4.66A342.17,342.17,0,0,0,169.13,542.38c0,189.36,153.51,342.87,342.87,342.87S854.87,731.74,854.87,542.38A341.83,341.83,0,0,0,752.1,297.61Z"/></svg>