<svg id="图层_1" data-name="图层 1" xmlns="http://www.w3.org/2000/svg" viewBox="0 0 1024 1024"><defs><style>.cls-1{fill:#040000;fill-rule:evenodd;}</style></defs><title>续费</title><path class="cls-1" d="M458.36,317.1c-15.71,0-28.44,6.48-28.44,24.25V504.42c0,17.77,12.93,54.94,53.45,54.94H631.49c31.15,0,37.89-53,0-52.83H483.37l1.28-166.29C484.65,327.93,475.65,317.1,458.36,317.1Z"/><path class="cls-1" d="M173.25,512.81c0-172.32,140.73-312,314.33-312,172.36,0,312.16,137.76,314.13,308.4,0,0,2.36,28.89,37.92,28.89,34.76,0,40.1-28.89,40.1-28.89-1.54-212-175-383.49-389-383.49-214.92,0-389.16,172.95-389.16,386.3S275.79,898.3,490.71,898.3A393.67,393.67,0,0,0,539.37,895s31.09-7.15,28.83-42.9c-2.21-34.9-28.83-31.83-28.83-31.83a317.32,317.32,0,0,1-51.8,4.59C314,824.82,173.25,685.13,173.25,512.81Z"/><path class="cls-1" d="M793,665v-69.6a31.53,31.53,0,0,0-31.53-31.53h-6.43a31.53,31.53,0,0,0-31.53,31.53V665c0,34.11,1.71,31.53-31.53,31.53H625.62A31.53,31.53,0,0,0,594.1,728.1h0a31.53,31.53,0,0,0,31.53,31.53H692c31.53,0,31.53,1,31.53,31.53v69.6a31.53,31.53,0,0,0,31.53,31.53h6.43A31.53,31.53,0,0,0,793,860.75v-69.6c0-32.43,1.1-31.53,31.53-31.53h66.38a31.53,31.53,0,0,0,31.53-31.53h0a31.53,31.53,0,0,0-31.53-31.53H824.54C794.12,696.57,793,696.57,793,665Z"/></svg>