<svg id="图层_1" data-name="图层 1" xmlns="http://www.w3.org/2000/svg" viewBox="0 0 1024 1024"><defs><style>.cls-1{fill:#120e0e;fill-rule:evenodd;}</style></defs><title>刷新-01</title><path class="cls-1" d="M762.61,502.18C775.22,562.1,759,754.6,550.35,793.24c-71.73,11.89-137.1-12.23-178.72-40.06C267.27,683.42,245,560.14,264.56,495.73c22.69-74.79,93.23-148.68,213.91-159.84-.46,38.89,0,64.69,0,83.14.5,30.75,1.38,46.61,34.1,20.78C581,388.9,717.14,283.93,717.14,283.93s-134.45-94.15-204.58-145.5c-33.09-20.69-34.9-10-34.1,20.79v83.14s-269,1.11-306.85,249.43C131.43,755.14,406.36,984.43,672.06,847.17,884.65,737.35,859.18,523.52,850.79,480.56c-3.46-14.36-6.45-29.72-9.19-37.84-5.89-17.47-22.12-16.5-33.53-13.29-15.37,4.33-19.41,5.29-34.1,10.39-19.34,6.71-23.83,16.94-18.37,33.76C758.09,481.25,759.64,488.08,762.61,502.18Z"/></svg>