<?xml version="1.0" encoding="utf-8"?>
<!-- Generator: Adobe Illustrator 21.0.0, SVG Export Plug-In . SVG Version: 6.00 Build 0)  -->
<svg version="1.1" id="图层_1" xmlns="http://www.w3.org/2000/svg" xmlns:xlink="http://www.w3.org/1999/xlink" x="0px" y="0px"
	 viewBox="0 0 1024 1024" style="enable-background:new 0 0 1024 1024;" xml:space="preserve">
<style type="text/css">
	.st0{fill-rule:evenodd;clip-rule:evenodd;fill:#040000;}
	.st1{fill:#2B2B60;}
	.st2{fill-rule:evenodd;clip-rule:evenodd;fill:none;}
	.st3{fill-rule:evenodd;clip-rule:evenodd;}
	.st4{fill-rule:evenodd;clip-rule:evenodd;fill:#B6A9D2;}
	.st5{fill-rule:evenodd;clip-rule:evenodd;fill:#0C0C0C;}
	.st6{fill-rule:evenodd;clip-rule:evenodd;fill:#120E0E;}
</style>
<path class="st3" d="M889.7,448.9v127.2h-138c-6,21.7-14.7,42.1-25.9,61l98.2,98.2l-90,90l-98.7-98.7c-19,11-39.3,19.6-61,25.4
	v137.7H447.2V753.1c-22.9-5.8-44.4-14.8-64.3-26.4l-98.7,98.7l-90-90l98.2-98.2c-11.2-18.9-19.8-39.3-25.9-61H134.3V448.9h130.1
	c5.8-23.7,15.1-45.8,27.1-66.3l-91.5-91.5l90-90l91,91.1c20.5-12.1,42.6-21.5,66.3-27.5V134.3h127.2v131.4c22.4,6,43.5,14.9,63,26.5
	l91.1-91.1l90,90l-91.5,91.5c11.9,20.5,21.3,42.6,27.1,66.3H889.7z M505.2,386.8c-68.5,0-124.1,55.5-124.1,124.1
	c0,68.5,55.5,124.1,124.1,124.1c68.5,0,124.1-55.5,124.1-124.1C629.2,442.3,573.7,386.8,505.2,386.8z"/>
</svg>
