<svg id="图层_1" data-name="图层 1" xmlns="http://www.w3.org/2000/svg" viewBox="0 0 1024 1024"><defs><style>.cls-1{fill:#040000;fill-rule:evenodd;}</style></defs><title>管理设置</title><path class="cls-1" d="M865.55,865.55c-195.27,195.26-511.84,195.26-707.11,0s-195.26-511.84,0-707.11,511.84-195.26,707.11,0S1060.82,670.29,865.55,865.55ZM836,449.5c-3.27-.53-6.23-1.95-9.67-1.95h-5.82A315.72,315.72,0,0,0,775,339.27l4.62-4.62a62.5,62.5,0,1,0-88.39-88.39l-4.79,4.79c-32.48-21.28-68.73-37.26-108.1-45.25V137h-125v68.8c-39.39,8-75.56,24.06-108,45.39l-4.94-4.93A62.5,62.5,0,1,0,252,334.65l4.77,4.77c-21.54,32.45-37.84,68.7-46.14,108.13h-5.39c-3.44,0-6.39,1.42-9.67,1.95H140.83v125h69.94c8.24,39,23.1,75.6,44.29,107.94l-3,3a62.5,62.5,0,0,0,88.38,88.39L343,771.3C376,793.38,413,810,453.33,818.2V887h125V817.18a315.24,315.24,0,0,0,110.19-46l2.7,2.69a62.5,62.5,0,0,0,88.39-88.39l-3-3c21.21-32.43,37-68.67,45-108h69.2v-125ZM515.84,637a125,125,0,1,1,125-125A125,125,0,0,1,515.84,637Z"/></svg>