<svg id="图层_1" data-name="图层 1" xmlns="http://www.w3.org/2000/svg" viewBox="0 0 1024 1024"><defs><style>.cls-1{fill:#231815;fill-rule:evenodd;}</style></defs><title>系统知识树</title><polygon class="cls-1" points="834.89 600.06 834.89 482.65 776.18 482.65 541.35 482.65 541.35 423.94 658.77 423.94 658.77 130.41 365.23 130.41 365.23 423.94 482.65 423.94 482.65 482.65 247.82 482.65 189.11 482.65 189.11 541.35 189.11 600.06 71.7 600.06 71.7 893.6 365.23 893.6 365.23 600.06 247.82 600.06 247.82 541.35 482.65 541.35 541.35 541.35 776.18 541.35 776.18 600.06 658.77 600.06 658.77 893.6 952.3 893.6 952.3 600.06 834.89 600.06"/></svg>