<svg id="图层_1" data-name="图层 1" xmlns="http://www.w3.org/2000/svg" viewBox="0 0 1024 1024"><defs><style>.cls-1{fill:#040000;fill-rule:evenodd;}</style></defs><title>个人中心</title><path class="cls-1" d="M865.55,865.55c-195.26,195.26-511.84,195.26-707.1,0s-195.26-511.85,0-707.11,511.84-195.26,707.1,0S1060.82,670.29,865.55,865.55ZM512,199.49a125,125,0,0,0-125,125c0,69,56,187.5,125,187.5S637,393.53,637,324.5A125,125,0,0,0,512,199.49ZM762,637c0-74.91-59-106.55-143.67-118.49-35.47,32.07-75.64,56-106.32,56s-70.85-23.91-106.33-56C321,530.45,262,562.08,262,637v62.5a62.5,62.5,0,0,0,62.5,62.5h375A62.49,62.49,0,0,0,762,699.5Z"/></svg>