<svg id="图层_1" data-name="图层 1" xmlns="http://www.w3.org/2000/svg" viewBox="0 0 1024 1024"><defs><style>.cls-1{fill:#2b2b60;}.cls-2{fill:none;}.cls-3{fill:#b6a9d2;fill-rule:evenodd;}</style></defs><title>默认头像-01</title><circle class="cls-1" cx="511.85" cy="512.79" r="512"/><rect class="cls-2" width="1024" height="1024"/><path class="cls-3" d="M786.27,667.62c-14.52-13.89-71.64-61.47-148.67-72.83-33.35-4.92-49.42-24.46-57.13-44.93C570.38,523,573.83,477,573.83,477c44.36-24.84,44.18-91.4,44.18-91.4V298.06s-5-94-75.75-94l-61-21.29c-78.75,0-77.22,115.33-77.22,115.33s1.78,31.89,0,80.48c-2.72,74.1,42.1,102.49,42.1,102.49s7.37,46.48-1,72.87c-5.92,18.72-20.18,36.17-52.14,40.89-77,11.36-140.8,58.94-155.32,72.83-25.17,32.52-24.33,134.25-24.33,134.25s84.39,149.08,298,149.08c214.78,0,299.23-149.08,299.23-149.08S800.79,681.51,786.27,667.62ZM527.34,949.17h-16l-47.91-104.7,25.41-247.93a31.6,31.6,0,0,1,1.2-5.82l-.58,5.56c-.41,5.37,2.76,14,16.55,14h23.07s15.75,0,14.19-23.07l35.49,257.3Z"/></svg>