<?xml version="1.0" encoding="utf-8"?>
<!-- Generator: Adobe Illustrator 21.0.0, SVG Export Plug-In . SVG Version: 6.00 Build 0)  -->
<svg version="1.1" id="图层_1" xmlns="http://www.w3.org/2000/svg" xmlns:xlink="http://www.w3.org/1999/xlink" x="0px" y="0px"
	 viewBox="0 0 1024 1024" style="enable-background:new 0 0 1024 1024;" xml:space="preserve">
<style type="text/css">
	.st0{fill-rule:evenodd;clip-rule:evenodd;fill:#040000;}
	.st1{fill:#2B2B60;}
	.st2{fill-rule:evenodd;clip-rule:evenodd;fill:none;}
	.st3{fill-rule:evenodd;clip-rule:evenodd;}
	.st4{fill-rule:evenodd;clip-rule:evenodd;fill:#B6A9D2;}
	.st5{fill-rule:evenodd;clip-rule:evenodd;fill:#0C0C0C;}
	.st6{fill-rule:evenodd;clip-rule:evenodd;fill:#120E0E;}
	.st7{fill:#040000;}
</style>
<path class="st0" d="M536.7,767.8v81.1c81.9,4.4,145.2,31.2,145.2,56.2c0,0.6-335.8,0.6-335.8,0c0-24.1,58.6-50.1,136.1-55.9v-81.8
	c-99-14-175.3-97.5-175.3-199.4v-42.1h27.2v42.1c0,96.8,79.2,175.3,176.9,175.3h0.1c97.7,0,176.9-78.5,176.9-175.3v-42.1h28.9v42.1
	C717.1,671.1,637.3,755.2,536.7,767.8z M512,714.1c-83.1,0-150.4-66.7-150.4-148.9V498h123v-27.1h-123v-27.1h123v-27.1h-123v-27.1
	h123v-27.1h-123v-27.1h123v-27.1h-123v-42.9c0-82.3,67.3-147.2,150.4-147.2c83.1,0,150.4,65,150.4,147.2v42.9h-123v27.1h123v27.1
	h-123v27.1h123v27.1h-123v27.1h123v27.1h-123V498h123v67.1C662.4,647.4,595.1,714.1,512,714.1z"/>
</svg>
